<svg width="288pt" height="1124pt"
 viewBox="0.00 0.00 288.13 1124.00" xmlns="http://www.w3.org/2000/svg" xmlns:xlink="http://www.w3.org/1999/xlink">
<g id="graph0" class="graph" transform="scale(1 1) rotate(0) translate(4 1120)">
<polygon fill="white" stroke="none" points="-4,4 -4,-1120 284.13,-1120 284.13,4 -4,4"/>
<!-- class&#45;and&#45;object -->
<g id="node1" class="node">
<title>class&#45;and&#45;object</title>
<g id="a_node1"><a xlink:href="class-and-object" xlink:title="类与对象">
<ellipse fill="none" stroke="black" cx="140.06" cy="-738" rx="47.45" ry="18"/>
<text text-anchor="middle" x="140.06" y="-732.2" font-family="Adobe Kaiti Std" font-size="14.00">类与对象</text>
</a>
</g>
</g>
<!-- oop&#45;refactor -->
<g id="node14" class="node">
<title>oop&#45;refactor</title>
<g id="a_node14"><a xlink:href="oop-refactor" xlink:title="使用面向对象设计进行代码重构">
<ellipse fill="none" stroke="black" cx="140.06" cy="-666" rx="140.06" ry="18"/>
<text text-anchor="middle" x="140.06" y="-660.2" font-family="Adobe Kaiti Std" font-size="14.00">使用面向对象设计进行代码重构</text>
</a>
</g>
</g>
<!-- class&#45;and&#45;object&#45;&gt;oop&#45;refactor -->
<g id="edge13" class="edge">
<title>class&#45;and&#45;object&#45;&gt;oop&#45;refactor</title>
<path fill="none" stroke="black" d="M140.06,-719.7C140.06,-712.24 140.06,-703.32 140.06,-694.97"/>
<polygon fill="black" stroke="black" points="143.56,-695.1 140.06,-685.1 136.56,-695.1 143.56,-695.1"/>
</g>
<!-- clean&#45;coding -->
<g id="node2" class="node">
<title>clean&#45;coding</title>
<g id="a_node2"><a xlink:href="clean-coding" xlink:title="使用函数编写干净的代码">
<ellipse fill="none" stroke="black" cx="140.06" cy="-882" rx="112.28" ry="18"/>
<text text-anchor="middle" x="140.06" y="-876.2" font-family="Adobe Kaiti Std" font-size="14.00">使用函数编写干净的代码</text>
</a>
</g>
</g>
<!-- debug&#45;and&#45;deploy&#45;application -->
<g id="node6" class="node">
<title>debug&#45;and&#45;deploy&#45;application</title>
<g id="a_node6"><a xlink:href="debug-and-deploy-application" xlink:title="调试和部署Java程序">
<ellipse fill="none" stroke="black" cx="140.06" cy="-810" rx="92.78" ry="18"/>
<text text-anchor="middle" x="140.06" y="-804.2" font-family="Adobe Kaiti Std" font-size="14.00">调试和部署Java程序</text>
</a>
</g>
</g>
<!-- clean&#45;coding&#45;&gt;debug&#45;and&#45;deploy&#45;application -->
<g id="edge6" class="edge">
<title>clean&#45;coding&#45;&gt;debug&#45;and&#45;deploy&#45;application</title>
<path fill="none" stroke="black" d="M140.06,-863.7C140.06,-856.24 140.06,-847.32 140.06,-838.97"/>
<polygon fill="black" stroke="black" points="143.56,-839.1 140.06,-829.1 136.56,-839.1 143.56,-839.1"/>
</g>
<!-- collection -->
<g id="node3" class="node">
<title>collection</title>
<g id="a_node3"><a xlink:href="collection" xlink:title="集合">
<ellipse fill="none" stroke="black" cx="140.06" cy="-306" rx="28.92" ry="18"/>
<text text-anchor="middle" x="140.06" y="-300.2" font-family="Adobe Kaiti Std" font-size="14.00">集合</text>
</a>
</g>
</g>
<!-- lambda&#45;and&#45;functional&#45;interface -->
<g id="node13" class="node">
<title>lambda&#45;and&#45;functional&#45;interface</title>
<g id="a_node13"><a xlink:href="lambda-and-functional-interface" xlink:title="Lambda和函数式接口">
<ellipse fill="none" stroke="black" cx="140.06" cy="-234" rx="92.29" ry="18"/>
<text text-anchor="middle" x="140.06" y="-228.2" font-family="Adobe Kaiti Std" font-size="14.00">Lambda和函数式接口</text>
</a>
</g>
</g>
<!-- collection&#45;&gt;lambda&#45;and&#45;functional&#45;interface -->
<g id="edge12" class="edge">
<title>collection&#45;&gt;lambda&#45;and&#45;functional&#45;interface</title>
<path fill="none" stroke="black" d="M140.06,-287.7C140.06,-280.24 140.06,-271.32 140.06,-262.97"/>
<polygon fill="black" stroke="black" points="143.56,-263.1 140.06,-253.1 136.56,-263.1 143.56,-263.1"/>
</g>
<!-- concurrency&#45;and&#45;multi&#45;threading -->
<g id="node4" class="node">
<title>concurrency&#45;and&#45;multi&#45;threading</title>
<g id="a_node4"><a xlink:href="concurrency-and-multi-threading" xlink:title="并发与多线程">
<ellipse fill="none" stroke="black" cx="140.06" cy="-90" rx="65.97" ry="18"/>
<text text-anchor="middle" x="140.06" y="-84.2" font-family="Adobe Kaiti Std" font-size="14.00">并发与多线程</text>
</a>
</g>
</g>
<!-- executor&#45;and&#45;thread&#45;pool -->
<g id="node8" class="node">
<title>executor&#45;and&#45;thread&#45;pool</title>
<g id="a_node8"><a xlink:href="executor-and-thread-pool" xlink:title="Executor框架与线程池">
<ellipse fill="none" stroke="black" cx="140.06" cy="-18" rx="101.07" ry="18"/>
<text text-anchor="middle" x="140.06" y="-12.2" font-family="Adobe Kaiti Std" font-size="14.00">Executor框架与线程池</text>
</a>
</g>
</g>
<!-- concurrency&#45;and&#45;multi&#45;threading&#45;&gt;executor&#45;and&#45;thread&#45;pool -->
<g id="edge8" class="edge">
<title>concurrency&#45;and&#45;multi&#45;threading&#45;&gt;executor&#45;and&#45;thread&#45;pool</title>
<path fill="none" stroke="black" d="M140.06,-71.7C140.06,-64.24 140.06,-55.32 140.06,-46.97"/>
<polygon fill="black" stroke="black" points="143.56,-47.1 140.06,-37.1 136.56,-47.1 143.56,-47.1"/>
</g>
<!-- control&#45;flow -->
<g id="node5" class="node">
<title>control&#45;flow</title>
<g id="a_node5"><a xlink:href="control-flow" xlink:title="程序流程控制">
<ellipse fill="none" stroke="black" cx="140.06" cy="-954" rx="65.97" ry="18"/>
<text text-anchor="middle" x="140.06" y="-948.2" font-family="Adobe Kaiti Std" font-size="14.00">程序流程控制</text>
</a>
</g>
</g>
<!-- control&#45;flow&#45;&gt;clean&#45;coding -->
<g id="edge2" class="edge">
<title>control&#45;flow&#45;&gt;clean&#45;coding</title>
<path fill="none" stroke="black" d="M140.06,-935.7C140.06,-928.24 140.06,-919.32 140.06,-910.97"/>
<polygon fill="black" stroke="black" points="143.56,-911.1 140.06,-901.1 136.56,-911.1 143.56,-911.1"/>
</g>
<!-- debug&#45;and&#45;deploy&#45;application&#45;&gt;class&#45;and&#45;object -->
<g id="edge1" class="edge">
<title>debug&#45;and&#45;deploy&#45;application&#45;&gt;class&#45;and&#45;object</title>
<path fill="none" stroke="black" d="M140.06,-791.7C140.06,-784.24 140.06,-775.32 140.06,-766.97"/>
<polygon fill="black" stroke="black" points="143.56,-767.1 140.06,-757.1 136.56,-767.1 143.56,-767.1"/>
</g>
<!-- exception -->
<g id="node7" class="node">
<title>exception</title>
<g id="a_node7"><a xlink:href="exception" xlink:title="异常">
<ellipse fill="none" stroke="black" cx="140.06" cy="-450" rx="28.92" ry="18"/>
<text text-anchor="middle" x="140.06" y="-444.2" font-family="Adobe Kaiti Std" font-size="14.00">异常</text>
</a>
</g>
</g>
<!-- generic -->
<g id="node9" class="node">
<title>generic</title>
<g id="a_node9"><a xlink:href="generic" xlink:title="泛型">
<ellipse fill="none" stroke="black" cx="140.06" cy="-378" rx="28.92" ry="18"/>
<text text-anchor="middle" x="140.06" y="-372.2" font-family="Adobe Kaiti Std" font-size="14.00">泛型</text>
</a>
</g>
</g>
<!-- exception&#45;&gt;generic -->
<g id="edge9" class="edge">
<title>exception&#45;&gt;generic</title>
<path fill="none" stroke="black" d="M140.06,-431.7C140.06,-424.24 140.06,-415.32 140.06,-406.97"/>
<polygon fill="black" stroke="black" points="143.56,-407.1 140.06,-397.1 136.56,-407.1 143.56,-407.1"/>
</g>
<!-- generic&#45;&gt;collection -->
<g id="edge3" class="edge">
<title>generic&#45;&gt;collection</title>
<path fill="none" stroke="black" d="M140.06,-359.7C140.06,-352.24 140.06,-343.32 140.06,-334.97"/>
<polygon fill="black" stroke="black" points="143.56,-335.1 140.06,-325.1 136.56,-335.1 143.56,-335.1"/>
</g>
<!-- get&#45;started -->
<g id="node10" class="node">
<title>get&#45;started</title>
<g id="a_node10"><a xlink:href="get-started" xlink:title="编写第一个Java程序">
<ellipse fill="none" stroke="black" cx="140.06" cy="-1098" rx="92.78" ry="18"/>
<text text-anchor="middle" x="140.06" y="-1092.2" font-family="Adobe Kaiti Std" font-size="14.00">编写第一个Java程序</text>
</a>
</g>
</g>
<!-- types -->
<g id="node16" class="node">
<title>types</title>
<g id="a_node16"><a xlink:href="types" xlink:title="变量与类型">
<ellipse fill="none" stroke="black" cx="140.06" cy="-1026" rx="56.71" ry="18"/>
<text text-anchor="middle" x="140.06" y="-1020.2" font-family="Adobe Kaiti Std" font-size="14.00">变量与类型</text>
</a>
</g>
</g>
<!-- get&#45;started&#45;&gt;types -->
<g id="edge15" class="edge">
<title>get&#45;started&#45;&gt;types</title>
<path fill="none" stroke="black" d="M140.06,-1079.7C140.06,-1072.24 140.06,-1063.32 140.06,-1054.97"/>
<polygon fill="black" stroke="black" points="143.56,-1055.1 140.06,-1045.1 136.56,-1055.1 143.56,-1055.1"/>
</g>
<!-- inheritance -->
<g id="node11" class="node">
<title>inheritance</title>
<g id="a_node11"><a xlink:href="inheritance" xlink:title="继承与多态">
<ellipse fill="none" stroke="black" cx="140.06" cy="-594" rx="56.71" ry="18"/>
<text text-anchor="middle" x="140.06" y="-588.2" font-family="Adobe Kaiti Std" font-size="14.00">继承与多态</text>
</a>
</g>
</g>
<!-- interface -->
<g id="node12" class="node">
<title>interface</title>
<g id="a_node12"><a xlink:href="interface" xlink:title="接口">
<ellipse fill="none" stroke="black" cx="140.06" cy="-522" rx="28.92" ry="18"/>
<text text-anchor="middle" x="140.06" y="-516.2" font-family="Adobe Kaiti Std" font-size="14.00">接口</text>
</a>
</g>
</g>
<!-- inheritance&#45;&gt;interface -->
<g id="edge11" class="edge">
<title>inheritance&#45;&gt;interface</title>
<path fill="none" stroke="black" d="M140.06,-575.7C140.06,-568.24 140.06,-559.32 140.06,-550.97"/>
<polygon fill="black" stroke="black" points="143.56,-551.1 140.06,-541.1 136.56,-551.1 143.56,-551.1"/>
</g>
<!-- interface&#45;&gt;exception -->
<g id="edge7" class="edge">
<title>interface&#45;&gt;exception</title>
<path fill="none" stroke="black" d="M140.06,-503.7C140.06,-496.24 140.06,-487.32 140.06,-478.97"/>
<polygon fill="black" stroke="black" points="143.56,-479.1 140.06,-469.1 136.56,-479.1 143.56,-479.1"/>
</g>
<!-- stream -->
<g id="node15" class="node">
<title>stream</title>
<g id="a_node15"><a xlink:href="stream" xlink:title="使用Stream流操作让代码更优雅">
<ellipse fill="none" stroke="black" cx="140.06" cy="-162" rx="138.6" ry="18"/>
<text text-anchor="middle" x="140.06" y="-156.2" font-family="Adobe Kaiti Std" font-size="14.00">使用Stream流操作让代码更优雅</text>
</a>
</g>
</g>
<!-- lambda&#45;and&#45;functional&#45;interface&#45;&gt;stream -->
<g id="edge14" class="edge">
<title>lambda&#45;and&#45;functional&#45;interface&#45;&gt;stream</title>
<path fill="none" stroke="black" d="M140.06,-215.7C140.06,-208.24 140.06,-199.32 140.06,-190.97"/>
<polygon fill="black" stroke="black" points="143.56,-191.1 140.06,-181.1 136.56,-191.1 143.56,-191.1"/>
</g>
<!-- oop&#45;refactor&#45;&gt;inheritance -->
<g id="edge10" class="edge">
<title>oop&#45;refactor&#45;&gt;inheritance</title>
<path fill="none" stroke="black" d="M140.06,-647.7C140.06,-640.24 140.06,-631.32 140.06,-622.97"/>
<polygon fill="black" stroke="black" points="143.56,-623.1 140.06,-613.1 136.56,-623.1 143.56,-623.1"/>
</g>
<!-- stream&#45;&gt;concurrency&#45;and&#45;multi&#45;threading -->
<g id="edge4" class="edge">
<title>stream&#45;&gt;concurrency&#45;and&#45;multi&#45;threading</title>
<path fill="none" stroke="black" d="M140.06,-143.7C140.06,-136.24 140.06,-127.32 140.06,-118.97"/>
<polygon fill="black" stroke="black" points="143.56,-119.1 140.06,-109.1 136.56,-119.1 143.56,-119.1"/>
</g>
<!-- types&#45;&gt;control&#45;flow -->
<g id="edge5" class="edge">
<title>types&#45;&gt;control&#45;flow</title>
<path fill="none" stroke="black" d="M140.06,-1007.7C140.06,-1000.24 140.06,-991.32 140.06,-982.97"/>
<polygon fill="black" stroke="black" points="143.56,-983.1 140.06,-973.1 136.56,-983.1 143.56,-983.1"/>
</g>
</g>
</svg>
